<?xml version="1.0" standalone="no"?><!DOCTYPE svg PUBLIC "-//W3C//DTD SVG 1.1//EN" "http://www.w3.org/Graphics/SVG/1.1/DTD/svg11.dtd"><svg t="1683806439483" class="icon" viewBox="0 0 1024 1024" version="1.1" xmlns="http://www.w3.org/2000/svg" p-id="9744" xmlns:xlink="http://www.w3.org/1999/xlink" width="200" height="200"><path d="M513.8 922.1c-43.7 0-79.2-35.5-79.2-79.2h-37.5c0 64.3 52.3 116.7 116.7 116.7 64.3 0 116.7-52.3 116.7-116.7H593c0 43.6-35.5 79.2-79.2 79.2zM849.7 662.1h-41.6V437.7c0-78.3-30.7-152.1-86.4-207.9-27-27-58.2-48-92-62.6-6.9-57.8-56.2-102.7-115.8-102.7S405 109.4 398.1 167.2c-33.9 14.6-65.1 35.7-92 62.6-55.7 55.7-86.4 129.6-86.4 207.9v224.4h-45.2c-43.1 0-78.1 35.1-78.1 78.1v2c0 43.1 35.1 78.1 78.1 78.1h675.4c43.1 0 78.1-35.1 78.1-78.1v-2c-0.1-43-35.2-78.1-78.3-78.1zM513.8 101.9c33.7 0 62.5 21.1 73.9 50.8-23.9-6.2-48.7-9.4-73.9-9.4-25.3 0-50 3.2-73.9 9.4 11.4-29.6 40.2-50.8 73.9-50.8z m376.6 640.4c0 22.4-18.2 40.7-40.7 40.7H174.3c-22.4 0-40.7-18.2-40.7-40.7v-2c0-22.4 18.2-40.7 40.7-40.7l82.6-0.1v-20h0.1V437.7c0-141.6 115.2-256.8 256.8-256.8s256.8 115.2 256.8 256.8v241.8h0.1v20.1h79c22.4 0 40.7 18.2 40.7 40.7v2z" fill="currentColor" p-id="9745"></path></svg>