<?xml version="1.0" standalone="no"?><!DOCTYPE svg PUBLIC "-//W3C//DTD SVG 1.1//EN" "http://www.w3.org/Graphics/SVG/1.1/DTD/svg11.dtd"><svg t="1656039917846" class="icon" viewBox="0 0 1024 1024" version="1.1" xmlns="http://www.w3.org/2000/svg" p-id="1677" xmlns:xlink="http://www.w3.org/1999/xlink" width="200" height="200"><defs><style type="text/css"></style></defs><path d="M410.9 102.1H181.7c-42.4 0-76.8 34.5-76.8 76.8v229.2c0 42.4 34.5 76.8 76.8 76.8h229.2c42.4 0 76.8-34.5 76.8-76.8V178.9c0-42.3-34.5-76.8-76.8-76.8z m6.8 306c0 3.8-3.1 6.8-6.8 6.8H181.7c-3.8 0-6.8-3.1-6.8-6.8V178.9c0-3.8 3.1-6.8 6.8-6.8h229.2c3.8 0 6.8 3.1 6.8 6.8v229.2zM410.9 542.5H181.7c-42.4 0-76.8 34.5-76.8 76.8v229.2c0 42.4 34.5 76.8 76.8 76.8h229.2c42.4 0 76.8-34.5 76.8-76.8V619.3c0-42.4-34.5-76.8-76.8-76.8z m6.8 305.9c0 3.8-3.1 6.8-6.8 6.8H181.7c-3.8 0-6.8-3.1-6.8-6.8V619.3c0-3.8 3.1-6.8 6.8-6.8h229.2c3.8 0 6.8 3.1 6.8 6.8v229.1zM738.8 484.9c105.5 0 191.4-85.9 191.4-191.4s-85.9-191.4-191.4-191.4S547.4 188 547.4 293.5s85.8 191.4 191.4 191.4z m0-312.8c66.9 0 121.4 54.5 121.4 121.4s-54.5 121.4-121.4 121.4-121.4-54.5-121.4-121.4 54.4-121.4 121.4-121.4zM853.4 542.5H624.2c-42.4 0-76.8 34.5-76.8 76.8v229.2c0 42.4 34.5 76.8 76.8 76.8h229.2c42.4 0 76.8-34.5 76.8-76.8V619.3c0-42.4-34.5-76.8-76.8-76.8z m6.8 305.9c0 3.8-3.1 6.8-6.8 6.8H624.2c-3.8 0-6.8-3.1-6.8-6.8V619.3c0-3.8 3.1-6.8 6.8-6.8h229.2c3.8 0 6.8 3.1 6.8 6.8v229.1z" p-id="1678" fill="#8a8a8a"></path></svg>